<svg width="593" height="451" viewBox="0 0 593 451" fill="none" xmlns="http://www.w3.org/2000/svg">
<g clip-path="url(#clip0_66_23006)">
<g clip-path="url(#clip1_66_23006)">
<circle cx="46.9383" cy="65.4332" r="8.31622" fill="#D2D6DB"/>
<circle cx="96.8354" cy="65.4333" r="8.31622" fill="#D2D6DB"/>
<circle cx="146.733" cy="65.4333" r="8.31622" fill="#D2D6DB"/>
<circle cx="196.63" cy="65.4333" r="8.31622" fill="#D2D6DB"/>
<circle cx="246.527" cy="65.4333" r="8.31622" fill="#D2D6DB"/>
<circle cx="296.425" cy="65.4333" r="8.31622" fill="#D2D6DB"/>
<circle cx="346.322" cy="65.4333" r="8.31622" fill="#D2D6DB"/>
<circle cx="396.22" cy="65.4333" r="8.31622" fill="#D2D6DB"/>
<circle cx="446.117" cy="65.4333" r="8.31622" fill="#D2D6DB"/>
<circle cx="496.014" cy="65.4333" r="8.31622" fill="#D2D6DB"/>
<circle cx="545.912" cy="65.4333" r="8.31622" fill="#D2D6DB"/>
</g>
<g clip-path="url(#clip2_66_23006)">
<circle cx="46.9383" cy="153.953" r="8.31622" fill="#D2D6DB"/>
<circle cx="96.8354" cy="153.953" r="8.31622" fill="#D2D6DB"/>
<circle cx="146.733" cy="153.953" r="8.31622" fill="#D2D6DB"/>
<circle cx="196.63" cy="153.953" r="8.31622" fill="#D2D6DB"/>
<circle cx="246.527" cy="153.953" r="8.31622" fill="#D2D6DB"/>
<circle cx="296.425" cy="153.953" r="8.31622" fill="#D2D6DB"/>
<circle cx="346.322" cy="153.953" r="8.31622" fill="#D2D6DB"/>
<circle cx="396.22" cy="153.953" r="8.31622" fill="#D2D6DB"/>
<circle cx="446.117" cy="153.953" r="8.31622" fill="#D2D6DB"/>
<circle cx="496.014" cy="153.953" r="8.31622" fill="#D2D6DB"/>
<circle cx="545.912" cy="153.953" r="8.31622" fill="#D2D6DB"/>
</g>
<g clip-path="url(#clip3_66_23006)">
<circle cx="46.9383" cy="242.472" r="8.31622" fill="#D2D6DB"/>
<circle cx="96.8354" cy="242.472" r="8.31622" fill="#D2D6DB"/>
<circle cx="146.733" cy="242.472" r="8.31622" fill="#D2D6DB"/>
<circle cx="196.63" cy="242.472" r="8.31622" fill="#D2D6DB"/>
<circle cx="246.527" cy="242.472" r="8.31622" fill="#D2D6DB"/>
<circle cx="296.425" cy="242.472" r="8.31622" fill="#D2D6DB"/>
<circle cx="346.322" cy="242.472" r="8.31622" fill="#D2D6DB"/>
<circle cx="396.22" cy="242.472" r="8.31622" fill="#D2D6DB"/>
<circle cx="446.117" cy="242.472" r="8.31622" fill="#D2D6DB"/>
<circle cx="496.014" cy="242.472" r="8.31622" fill="#D2D6DB"/>
<circle cx="545.912" cy="242.472" r="8.31622" fill="#D2D6DB"/>
</g>
<g clip-path="url(#clip4_66_23006)">
<circle cx="46.9383" cy="330.992" r="8.31622" fill="#D2D6DB"/>
<circle cx="96.8354" cy="330.992" r="8.31622" fill="#D2D6DB"/>
<circle cx="146.733" cy="330.992" r="8.31622" fill="#D2D6DB"/>
<circle cx="196.63" cy="330.992" r="8.31622" fill="#D2D6DB"/>
<circle cx="246.527" cy="330.992" r="8.31622" fill="#D2D6DB"/>
<circle cx="296.425" cy="330.992" r="8.31622" fill="#D2D6DB"/>
<circle cx="346.322" cy="330.992" r="8.31622" fill="#D2D6DB"/>
<circle cx="396.22" cy="330.992" r="8.31622" fill="#D2D6DB"/>
<circle cx="446.117" cy="330.992" r="8.31622" fill="#D2D6DB"/>
<circle cx="496.014" cy="330.992" r="8.31622" fill="#D2D6DB"/>
<circle cx="545.912" cy="330.992" r="8.31622" fill="#D2D6DB"/>
</g>
<g clip-path="url(#clip5_66_23006)">
<circle cx="46.9383" cy="419.511" r="8.31622" fill="#D2D6DB"/>
<circle cx="96.8354" cy="419.511" r="8.31622" fill="#D2D6DB"/>
<circle cx="146.733" cy="419.511" r="8.31622" fill="#D2D6DB"/>
<circle cx="196.63" cy="419.511" r="8.31622" fill="#D2D6DB"/>
<circle cx="246.527" cy="419.511" r="8.31622" fill="#D2D6DB"/>
<circle cx="296.425" cy="419.511" r="8.31622" fill="#D2D6DB"/>
<circle cx="346.322" cy="419.511" r="8.31622" fill="#D2D6DB"/>
<circle cx="396.22" cy="419.511" r="8.31622" fill="#D2D6DB"/>
<circle cx="446.117" cy="419.511" r="8.31622" fill="#D2D6DB"/>
<circle cx="496.014" cy="419.511" r="8.31622" fill="#D2D6DB"/>
<circle cx="545.912" cy="419.511" r="8.31622" fill="#D2D6DB"/>
</g>
</g>
<defs>
<clipPath id="clip0_66_23006">
<rect width="592.85" height="925" fill="white" transform="translate(0 -474)"/>
</clipPath>
<clipPath id="clip1_66_23006">
<rect width="554.414" height="49.8973" fill="white" transform="translate(38.6221 57.117)"/>
</clipPath>
<clipPath id="clip2_66_23006">
<rect width="554.414" height="49.8973" fill="white" transform="translate(38.6221 145.636)"/>
</clipPath>
<clipPath id="clip3_66_23006">
<rect width="554.414" height="49.8973" fill="white" transform="translate(38.6221 234.156)"/>
</clipPath>
<clipPath id="clip4_66_23006">
<rect width="554.414" height="49.8973" fill="white" transform="translate(38.6221 322.675)"/>
</clipPath>
<clipPath id="clip5_66_23006">
<rect width="554.414" height="49.8973" fill="white" transform="translate(38.6221 411.195)"/>
</clipPath>
</defs>
</svg>
