<svg width="883" height="734" viewBox="0 0 883 734" fill="none" xmlns="http://www.w3.org/2000/svg">
<g clip-path="url(#clip0_66_23415)">
<g clip-path="url(#clip1_66_23415)">
<circle cx="812.67" cy="705.748" r="12.3799" transform="rotate(180 812.67 705.748)" fill="#D2D6DB"/>
<circle cx="738.391" cy="705.748" r="12.3799" transform="rotate(180 738.391 705.748)" fill="#D2D6DB"/>
<circle cx="664.111" cy="705.748" r="12.3799" transform="rotate(180 664.111 705.748)" fill="#D2D6DB"/>
<circle cx="589.831" cy="705.748" r="12.3799" transform="rotate(180 589.831 705.748)" fill="#D2D6DB"/>
<circle cx="515.552" cy="705.748" r="12.3799" transform="rotate(180 515.552 705.748)" fill="#D2D6DB"/>
<circle cx="441.272" cy="705.748" r="12.3799" transform="rotate(180 441.272 705.748)" fill="#D2D6DB"/>
<circle cx="366.993" cy="705.748" r="12.3799" transform="rotate(180 366.993 705.748)" fill="#D2D6DB"/>
<circle cx="292.713" cy="705.748" r="12.3799" transform="rotate(180 292.713 705.748)" fill="#D2D6DB"/>
<circle cx="218.434" cy="705.748" r="12.3799" transform="rotate(180 218.434 705.748)" fill="#D2D6DB"/>
<circle cx="144.154" cy="705.748" r="12.3799" transform="rotate(180 144.154 705.748)" fill="#D2D6DB"/>
<circle cx="69.8743" cy="705.748" r="12.3799" transform="rotate(180 69.8743 705.748)" fill="#D2D6DB"/>
</g>
<g clip-path="url(#clip2_66_23415)">
<circle cx="812.67" cy="573.974" r="12.3799" transform="rotate(180 812.67 573.974)" fill="#D2D6DB"/>
<circle cx="738.391" cy="573.974" r="12.3799" transform="rotate(180 738.391 573.974)" fill="#D2D6DB"/>
<circle cx="664.111" cy="573.974" r="12.3799" transform="rotate(180 664.111 573.974)" fill="#D2D6DB"/>
<circle cx="589.831" cy="573.974" r="12.3799" transform="rotate(180 589.831 573.974)" fill="#D2D6DB"/>
<circle cx="515.552" cy="573.974" r="12.3799" transform="rotate(180 515.552 573.974)" fill="#D2D6DB"/>
<circle cx="441.272" cy="573.974" r="12.3799" transform="rotate(180 441.272 573.974)" fill="#D2D6DB"/>
<circle cx="366.993" cy="573.974" r="12.3799" transform="rotate(180 366.993 573.974)" fill="#D2D6DB"/>
<circle cx="292.713" cy="573.974" r="12.3799" transform="rotate(180 292.713 573.974)" fill="#D2D6DB"/>
<circle cx="218.434" cy="573.974" r="12.3799" transform="rotate(180 218.434 573.974)" fill="#D2D6DB"/>
<circle cx="144.154" cy="573.974" r="12.3799" transform="rotate(180 144.154 573.974)" fill="#D2D6DB"/>
<circle cx="69.8743" cy="573.974" r="12.3799" transform="rotate(180 69.8743 573.974)" fill="#D2D6DB"/>
</g>
<g clip-path="url(#clip3_66_23415)">
<circle cx="812.67" cy="442.199" r="12.3799" transform="rotate(180 812.67 442.199)" fill="#D2D6DB"/>
<circle cx="738.391" cy="442.199" r="12.3799" transform="rotate(180 738.391 442.199)" fill="#D2D6DB"/>
<circle cx="664.111" cy="442.199" r="12.3799" transform="rotate(180 664.111 442.199)" fill="#D2D6DB"/>
<circle cx="589.831" cy="442.199" r="12.3799" transform="rotate(180 589.831 442.199)" fill="#D2D6DB"/>
<circle cx="515.552" cy="442.199" r="12.3799" transform="rotate(180 515.552 442.199)" fill="#D2D6DB"/>
<circle cx="441.272" cy="442.199" r="12.3799" transform="rotate(180 441.272 442.199)" fill="#D2D6DB"/>
<circle cx="366.993" cy="442.199" r="12.3799" transform="rotate(180 366.993 442.199)" fill="#D2D6DB"/>
<circle cx="292.713" cy="442.199" r="12.3799" transform="rotate(180 292.713 442.199)" fill="#D2D6DB"/>
<circle cx="218.434" cy="442.199" r="12.3799" transform="rotate(180 218.434 442.199)" fill="#D2D6DB"/>
<circle cx="144.154" cy="442.199" r="12.3799" transform="rotate(180 144.154 442.199)" fill="#D2D6DB"/>
<circle cx="69.8743" cy="442.199" r="12.3799" transform="rotate(180 69.8743 442.199)" fill="#D2D6DB"/>
</g>
<g clip-path="url(#clip4_66_23415)">
<circle cx="812.67" cy="310.425" r="12.3799" transform="rotate(180 812.67 310.425)" fill="#D2D6DB"/>
<circle cx="738.391" cy="310.425" r="12.3799" transform="rotate(180 738.391 310.425)" fill="#D2D6DB"/>
<circle cx="664.111" cy="310.425" r="12.3799" transform="rotate(180 664.111 310.425)" fill="#D2D6DB"/>
<circle cx="589.831" cy="310.425" r="12.3799" transform="rotate(180 589.831 310.425)" fill="#D2D6DB"/>
<circle cx="515.552" cy="310.425" r="12.3799" transform="rotate(180 515.552 310.425)" fill="#D2D6DB"/>
<circle cx="441.272" cy="310.425" r="12.3799" transform="rotate(180 441.272 310.425)" fill="#D2D6DB"/>
<circle cx="366.993" cy="310.425" r="12.3799" transform="rotate(180 366.993 310.425)" fill="#D2D6DB"/>
<circle cx="292.713" cy="310.425" r="12.3799" transform="rotate(180 292.713 310.425)" fill="#D2D6DB"/>
<circle cx="218.434" cy="310.425" r="12.3799" transform="rotate(180 218.434 310.425)" fill="#D2D6DB"/>
<circle cx="144.154" cy="310.425" r="12.3799" transform="rotate(180 144.154 310.425)" fill="#D2D6DB"/>
<circle cx="69.8743" cy="310.425" r="12.3799" transform="rotate(180 69.8743 310.425)" fill="#D2D6DB"/>
</g>
<g clip-path="url(#clip5_66_23415)">
<circle cx="812.67" cy="178.65" r="12.3799" transform="rotate(180 812.67 178.65)" fill="#D2D6DB"/>
<circle cx="738.391" cy="178.65" r="12.3799" transform="rotate(180 738.391 178.65)" fill="#D2D6DB"/>
<circle cx="664.111" cy="178.65" r="12.3799" transform="rotate(180 664.111 178.65)" fill="#D2D6DB"/>
<circle cx="589.831" cy="178.65" r="12.3799" transform="rotate(180 589.831 178.65)" fill="#D2D6DB"/>
<circle cx="515.552" cy="178.65" r="12.3799" transform="rotate(180 515.552 178.65)" fill="#D2D6DB"/>
<circle cx="441.272" cy="178.65" r="12.3799" transform="rotate(180 441.272 178.65)" fill="#D2D6DB"/>
<circle cx="366.993" cy="178.65" r="12.3799" transform="rotate(180 366.993 178.65)" fill="#D2D6DB"/>
<circle cx="292.713" cy="178.65" r="12.3799" transform="rotate(180 292.713 178.65)" fill="#D2D6DB"/>
<circle cx="218.434" cy="178.65" r="12.3799" transform="rotate(180 218.434 178.65)" fill="#D2D6DB"/>
<circle cx="144.154" cy="178.65" r="12.3799" transform="rotate(180 144.154 178.65)" fill="#D2D6DB"/>
<circle cx="69.8743" cy="178.65" r="12.3799" transform="rotate(180 69.8743 178.65)" fill="#D2D6DB"/>
</g>
<g clip-path="url(#clip6_66_23415)">
<circle cx="812.67" cy="46.8761" r="12.3799" transform="rotate(180 812.67 46.8761)" fill="#D2D6DB"/>
<circle cx="738.391" cy="46.8758" r="12.3799" transform="rotate(180 738.391 46.8758)" fill="#D2D6DB"/>
<circle cx="664.111" cy="46.8758" r="12.3799" transform="rotate(180 664.111 46.8758)" fill="#D2D6DB"/>
<circle cx="589.831" cy="46.8758" r="12.3799" transform="rotate(180 589.831 46.8758)" fill="#D2D6DB"/>
<circle cx="515.552" cy="46.8758" r="12.3799" transform="rotate(180 515.552 46.8758)" fill="#D2D6DB"/>
<circle cx="441.272" cy="46.8758" r="12.3799" transform="rotate(180 441.272 46.8758)" fill="#D2D6DB"/>
<circle cx="366.993" cy="46.8758" r="12.3799" transform="rotate(180 366.993 46.8758)" fill="#D2D6DB"/>
<circle cx="292.713" cy="46.8758" r="12.3799" transform="rotate(180 292.713 46.8758)" fill="#D2D6DB"/>
<circle cx="218.434" cy="46.8758" r="12.3799" transform="rotate(180 218.434 46.8758)" fill="#D2D6DB"/>
<circle cx="144.154" cy="46.8758" r="12.3799" transform="rotate(180 144.154 46.8758)" fill="#D2D6DB"/>
<circle cx="69.8743" cy="46.8758" r="12.3799" transform="rotate(180 69.8743 46.8758)" fill="#D2D6DB"/>
</g>
</g>
<defs>
<clipPath id="clip0_66_23415">
<rect width="882.545" height="1377" fill="white" transform="matrix(-1 0 0 -1 882.545 1377)"/>
</clipPath>
<clipPath id="clip1_66_23415">
<rect width="825.328" height="74.2795" fill="white" transform="matrix(-1 0 0 -1 825.05 718.128)"/>
</clipPath>
<clipPath id="clip2_66_23415">
<rect width="825.328" height="74.2795" fill="white" transform="matrix(-1 0 0 -1 825.05 586.354)"/>
</clipPath>
<clipPath id="clip3_66_23415">
<rect width="825.328" height="74.2795" fill="white" transform="matrix(-1 0 0 -1 825.05 454.579)"/>
</clipPath>
<clipPath id="clip4_66_23415">
<rect width="825.328" height="74.2795" fill="white" transform="matrix(-1 0 0 -1 825.05 322.805)"/>
</clipPath>
<clipPath id="clip5_66_23415">
<rect width="825.328" height="74.2795" fill="white" transform="matrix(-1 0 0 -1 825.05 191.03)"/>
</clipPath>
<clipPath id="clip6_66_23415">
<rect width="825.328" height="74.2795" fill="white" transform="matrix(-1 0 0 -1 825.05 59.256)"/>
</clipPath>
</defs>
</svg>
